<?xml version="1.0" encoding="utf-8"?>
<!-- Generator: Adobe Illustrator 27.4.0, SVG Export Plug-In . SVG Version: 6.00 Build 0)  -->
<svg version="1.1" id="Layer_1" xmlns="http://www.w3.org/2000/svg" xmlns:xlink="http://www.w3.org/1999/xlink" x="0px" y="0px"
	 viewBox="0 0 1274.3 361.9" style="enable-background:new 0 0 1274.3 361.9;" xml:space="preserve">
<style type="text/css">
	.st0{fill-rule:evenodd;clip-rule:evenodd;fill:#FF9800;}
	.st1{fill-rule:evenodd;clip-rule:evenodd;fill:#0048D1;}
</style>
<g>
	<g>
		<g>
			<path class="st0" d="M1223.3,63.2c-9.1,0-16.5,7.4-16.5,16.5s7.4,16.5,16.5,16.5s16.5-7.4,16.5-16.5
				C1239.7,70.6,1232.3,63.2,1223.3,63.2z M1223.3,47c18,0,32.7,14.6,32.7,32.7s-14.6,32.7-32.7,32.7c-18,0-32.7-14.6-32.7-32.7
				C1190.6,61.6,1205.2,47,1223.3,47z M1137.9,119.3c-25.7,0-42.1,26.2-42.1,59.2v0.5c0,32.8,16.6,59.7,42.6,59.7
				c25.9,0,42.1-26.6,42.1-59.2V179C1180.5,146.2,1163.6,119.3,1137.9,119.3z M994.3,180.2c-20.7,0-33.8,13.3-33.8,29.3v0.5
				c0,16.9,13.8,29.7,34.5,29.7s33.3-12.8,33.3-30v-0.5C1028.3,192.6,1015,180.2,994.3,180.2z M1138.4,92.9
				c43.5,0,72.3,38,72.3,85.6v0.5c0,47.6-29,86.1-72.7,86.1s-72.3-38-72.3-85.6V179C1065.7,131.4,1094.7,92.9,1138.4,92.9z
				 M1000.5,92.9c17.1,0,30.7,4.5,41.6,11.9c4.5,2.9,7.4,6.7,7.4,12.6c0,7.6-6.4,13.6-14,13.6c-2.6,0-5.2-1-7.4-2.1
				c-9-5.9-17.4-9.3-28.5-9.3c-24.7,0-38.5,22.4-39.9,52.8c8.8-8.6,20.2-16.6,39.9-16.6c32.1,0,58,19,58,52.3v0.5
				c0,33.1-26.9,56.6-61.8,56.6c-20.4,0-35.2-6.4-46.4-17.6c-12.6-12.6-20.2-30-20.2-63.5v-0.5C929.2,132.6,953.4,92.9,1000.5,92.9z
				 M905.1,95.8c8.3,0,14.5,5,14.5,12.8c0,6.9-3.3,10.9-8.3,15.9l-39.2,40.7c25.2,3.1,49,15.9,49,46.6v0.5
				c0,30.7-23.5,52.8-58.2,52.8c-24.5,0-42.8-8.6-56.3-21.6c-2.6-2.1-4.8-6.2-4.8-10.5c0-7.6,6.4-14,14-14c4.3,0,7.4,1.7,9.7,3.8
				c10.5,10.5,22.3,15.9,37.8,15.9c16.4,0,28.8-10,28.8-25.2V213c0-16.4-15-25.7-38.3-25.7h-5.9c-6.9,0-12.6-5.7-12.6-12.6
				c0-3.8,1.7-7.4,6.2-11.9l39-41.6h-60.4c-7.1,0-12.8-5.7-12.8-12.6c0-7.1,5.7-12.8,12.8-12.8H905.1L905.1,95.8z"/>
			<path class="st1" d="M295.2,123.3c-7.4,0-14.5,1.4-21.2,4.2c-6.5,2.8-12.3,6.7-17.2,11.7c-5,5-8.9,10.7-11.7,17.2
				c-2.8,6.8-4.2,13.8-4.2,21.2s1.4,14.4,4.2,21.2c2.8,6.4,6.7,12.2,11.7,17.2c5,5,10.7,8.9,17.2,11.7c6.7,2.8,13.7,4.2,21.2,4.2
				c7.3,0,14.4-1.4,21.2-4.2c6.4-2.8,12.2-6.7,17.2-11.7c5-5.1,8.8-10.8,11.5-17.2c2.9-6.8,4.3-13.8,4.3-21.2s-1.4-14.4-4.3-21.2
				c-2.7-6.5-6.6-12.3-11.5-17.2c-5.1-5-10.8-8.9-17.2-11.7C309.5,124.7,302.5,123.3,295.2,123.3z M769.2,96.2
				c9,0,16.3,7.3,16.3,16.3v65.1c0,11.8-2.3,23-6.8,33.8c-4.4,10.4-10.6,19.6-18.6,27.7c-8,8-17.3,14.2-27.7,18.6
				c-10.8,4.5-22,6.8-33.8,6.8s-23-2.3-33.8-6.8c-10.4-4.4-19.6-10.6-27.7-18.6c-8-8.1-14.2-17.3-18.6-27.7
				c-4.5-10.8-6.8-22-6.8-33.8v-65.1c0-8.8,7.1-16,15.8-16.3h0.4c9,0,16.3,7.3,16.3,16.3v65.1c0,7.3,1.4,14.4,4.2,21.2
				c2.8,6.4,6.7,12.2,11.7,17.2c5.1,5,10.8,8.8,17.2,11.5c6.8,2.9,13.8,4.3,21.2,4.3c7.3,0,14.4-1.4,21.2-4.3
				c6.5-2.7,12.2-6.6,17.2-11.5c5-5.1,8.9-10.8,11.7-17.2c2.8-6.8,4.2-13.8,4.2-21.2v-65.1c0-8.8,7.1-16,15.8-16.3L769.2,96.2
				L769.2,96.2z M295.2,90.7c11.8,0,23,2.3,33.8,6.8c10.4,4.4,19.6,10.6,27.7,18.6c8,8.1,14.2,17.3,18.6,27.7
				c4.5,10.8,6.8,22,6.8,33.8s-2.3,23-6.8,33.8c-4.4,10.4-10.6,19.6-18.6,27.7c-8,8-17.3,14.2-27.7,18.6c-10.8,4.5-22,6.8-33.8,6.8
				s-23-2.3-33.8-6.8c-10.4-4.4-19.6-10.6-27.7-18.6c-8-8.1-14.2-17.3-18.6-27.7c-4.5-10.8-6.8-22-6.8-33.8s2.3-23,6.8-33.8
				c4.4-10.4,10.6-19.6,18.6-27.7c8-8,17.3-14.2,27.7-18.6C272.1,93,283.4,90.7,295.2,90.7z M526.6,90.9
				c23.1-1.9,44.6,5.3,61.2,18.4c11.8,9.3,4.8,28.4-10.2,28.4H577c-3.4-0.1-6.6-1.3-9.3-3.4c-9.3-7.3-21-11.6-33.7-11.6
				c-32.4,0-58.3,28.2-54.6,61.3c2.8,24.9,22.8,45.2,47.7,48.2c16,2,30.8-3,41.9-12.3c2.9-2.4,6.6-3.9,10.4-3.9
				c14.9,0,21.8,18.6,10.4,28.2c-15.1,12.7-34.6,20.3-55.8,20.3c-51.2,0-92.2-44.5-86.4-96.9C452.2,126.8,485.7,94.3,526.6,90.9z
				 M414.5,5.3c9,0,16.3,7.3,16.3,16.3v226.7c0,8.8-7.1,16-15.8,16.3h-0.4c-9,0-16.3-7.3-16.3-16.3V21.5c0-8.8,7.1-16,15.8-16.3
				L414.5,5.3z M175.8,96.2c9,0,16.3,7.3,16.3,16.3v227.9c0,9-7.3,16.3-16.3,16.3s-16.3-7.3-16.3-16.3v-95c-0.5,0.4-1,0.7-1.5,1.1
				c-13,10-27.7,15.9-44.1,17.5c-2.9,0.3-5.8,0.4-8.7,0.4c-19.7,0-37.3-6-52.8-17.9c-10-7.7-18-17.1-23.9-28.2
				c-6.8-12.7-10.2-26.2-10.2-40.7v-65.1c0-9,7.3-16.3,16.3-16.3s16.3,7.3,16.3,16.3v58.3c0.3,7.9,1.1,17.8,3.3,25.4
				c3,8.6,8,16,15,22.2c10.3,9,22.3,13.6,35.9,13.6c13.7,0,25.6-4.5,35.8-13.6c7.1-6.2,12.2-13.7,15.2-22.4c2.2-7.6,3-17.3,3.2-25.1
				v-58.4C159.5,103.4,166.8,96.2,175.8,96.2z"/>
		</g>
	</g>
</g>
</svg>
